<svg version="1.1" id="Layer_1" xmlns="http://www.w3.org/2000/svg" xmlns:xlink="http://www.w3.org/1999/xlink" x="0px" y="0px"
	 width="100%" viewBox="0 0 3456 1248" enable-background="new 0 0 3456 1248" xml:space="preserve">
<path fill="#FDFDFC" opacity="1.000000" stroke="none" 
	d="
M2652.000000,1250.000000 
	C1768.000000,1250.000000 885.000000,1250.000000 2.000000,1250.000000 
	C2.000000,834.000000 2.000000,418.000000 2.000000,2.000000 
	C1154.000000,2.000000 2306.000000,2.000000 3458.000000,2.000000 
	C3458.000000,418.000000 3458.000000,834.000000 3458.000000,1250.000000 
	C3189.666748,1250.000000 2921.333252,1250.000000 2652.000000,1250.000000 
M971.764465,495.853912 
	C976.327026,495.853912 980.889648,495.853912 986.299866,495.853912 
	C986.630554,491.657349 986.930786,487.846466 987.747009,482.220490 
	C989.489258,449.268799 986.475342,417.079376 973.704346,386.179474 
	C959.316711,351.367920 936.823853,323.165375 906.399353,301.108459 
	C879.643738,281.711426 848.897583,272.679535 816.859497,268.498322 
	C781.603577,263.897186 746.857239,267.654724 712.948914,279.213776 
	C650.149658,300.621368 610.396729,344.559570 590.116699,406.338409 
	C578.031860,443.152344 577.980286,481.360718 587.350220,518.890442 
	C602.649780,580.169739 642.019165,621.455505 698.905151,646.338867 
	C735.987122,662.559509 775.188538,666.374084 815.406433,662.284485 
	C880.852539,655.629395 930.778503,624.336548 965.914124,569.008179 
	C967.077698,567.175781 967.669678,564.980347 968.852295,562.189148 
	C939.668701,553.248779 911.160461,544.515259 882.723450,535.803589 
	C868.238098,558.353027 850.474548,575.294617 825.280518,582.949402 
	C800.532593,590.468567 775.869141,589.948669 751.804504,580.490356 
	C717.601318,567.047180 688.430847,528.233887 689.211853,495.933716 
	C693.485596,495.933716 697.782532,495.961670 702.078979,495.928864 
	C721.394836,495.781433 740.710449,495.616791 761.867920,495.810455 
	C777.899902,495.685699 793.931885,495.560913 811.545715,495.854034 
	C813.708984,495.718262 815.872253,495.582489 819.832825,495.800934 
	C826.544128,495.696045 833.255493,495.591156 841.688354,495.900391 
	C845.803284,495.760773 849.918152,495.621185 855.842407,495.828979 
	C863.216858,495.708801 870.591248,495.588654 879.547668,495.882141 
	C881.709656,495.745850 883.871704,495.609558 887.597351,495.821686 
	C889.720215,495.705200 891.843018,495.588715 895.804749,495.884186 
	C920.546997,495.758209 945.289307,495.632233 971.764465,495.853912 
M1735.590332,1028.027710 
	C1740.176758,1028.548340 1743.008789,1027.397095 1741.768066,1020.144226 
	C1741.680054,990.768066 1741.592041,961.391968 1741.902832,930.439209 
	C1741.773071,928.287720 1741.643188,926.136169 1741.903442,922.244751 
	C1741.800049,917.500793 1741.696533,912.756836 1741.965210,906.210022 
	C1741.828003,899.468628 1741.690674,892.727295 1742.151733,885.079590 
	C1742.740967,884.730591 1743.330200,884.381592 1744.328735,885.329102 
	C1765.064697,911.384460 1785.831787,937.415161 1806.526489,963.503174 
	C1822.047729,983.069458 1837.412109,1002.760620 1853.026978,1022.251404 
	C1854.952271,1024.654541 1857.916016,1027.693115 1860.530273,1027.825073 
	C1872.401978,1028.424072 1884.320801,1028.087402 1896.705566,1028.087402 
	C1896.705566,949.932739 1896.705566,872.848633 1896.705566,795.410034 
	C1880.630127,795.410034 1865.256714,795.410034 1849.437256,795.410034 
	C1849.437256,805.856018 1849.420288,815.497192 1849.441772,825.138184 
	C1849.463501,834.797974 1849.543945,844.457520 1849.561523,854.117310 
	C1849.579102,863.777222 1849.565430,873.437378 1849.537964,883.097290 
	C1849.510498,892.757080 1849.592773,902.420166 1849.361450,912.075500 
	C1849.137329,921.425537 1850.522827,930.903198 1847.851929,942.223511 
	C1841.542114,934.359741 1836.423706,927.986572 1831.311523,921.608337 
	C1815.530762,901.919678 1799.752441,882.229004 1782.917969,861.603760 
	C1779.932129,857.232849 1777.151001,852.703979 1773.923950,848.518921 
	C1761.137085,831.935913 1748.250366,815.429138 1735.276855,798.991699 
	C1733.925049,797.278931 1731.797241,795.099609 1729.955688,795.027771 
	C1718.148926,794.567139 1706.297363,794.063538 1694.618652,795.128479 
	C1694.618652,873.349365 1694.618652,950.337708 1694.618652,1027.627686 
	C1708.239258,1027.627686 1721.143799,1027.627686 1735.590332,1028.027710 
M2529.975586,290.198212 
	C2529.975586,284.976044 2529.975586,279.753845 2529.975586,274.403625 
	C2497.739502,274.403625 2466.971680,274.403625 2436.267822,274.403625 
	C2434.277832,301.295349 2435.302002,648.423889 2437.371582,655.572754 
	C2471.551758,655.572754 2505.767822,655.572754 2540.899414,655.572754 
	C2540.899414,650.471558 2540.899902,645.843933 2540.899170,641.216248 
	C2540.890137,579.223694 2540.928223,517.231079 2540.832520,455.238617 
	C2540.812744,442.435211 2542.274170,430.064636 2547.796875,418.288147 
	C2561.546875,388.967590 2581.533936,366.403992 2613.885498,357.534302 
	C2645.303711,348.920441 2672.131104,362.889435 2683.794922,393.133911 
	C2689.551514,408.061646 2690.656982,423.606171 2690.677002,439.306793 
	C2690.759277,503.300262 2690.723877,567.293884 2690.731201,631.287415 
	C2690.731934,639.211426 2690.731201,647.135376 2690.731201,655.292480 
	C2726.484375,655.292480 2761.216064,655.292480 2795.993896,655.292480 
	C2796.129395,652.880798 2796.302490,651.220276 2796.304443,649.559509 
	C2796.395996,572.567383 2796.700684,495.574402 2796.424072,418.583557 
	C2796.330566,392.524780 2793.068848,366.742584 2784.270020,341.953796 
	C2770.294678,302.581970 2743.196777,277.856720 2701.935791,270.225372 
	C2668.913818,264.117828 2636.120605,265.979462 2604.679932,278.701141 
	C2592.713379,283.543121 2581.462646,290.154053 2568.224121,295.958099 
	C2563.189697,295.675781 2558.793701,296.763123 2554.244873,299.502777 
	C2550.923584,301.503143 2546.093750,301.695831 2541.991943,301.504303 
	C2537.989258,301.317383 2536.156738,298.068146 2535.334717,294.058716 
	C2535.131592,293.068329 2532.084473,292.661041 2529.975586,290.198212 
M2292.033691,392.251953 
	C2292.027832,390.960541 2292.021973,389.669098 2293.243652,387.678192 
	C2296.471191,385.449188 2299.625000,383.103210 2302.938721,381.010468 
	C2322.553955,368.622711 2335.716797,350.912689 2344.137451,329.709747 
	C2356.228516,299.264008 2356.452148,268.034576 2348.787842,236.494949 
	C2343.545410,214.920654 2333.112061,196.383575 2317.081055,180.922104 
	C2291.637939,156.382370 2260.230225,146.330292 2226.034668,146.059372 
	C2135.746582,145.344025 2045.449463,145.802689 1955.155884,145.822723 
	C1952.268188,145.823364 1949.380493,146.138245 1946.523315,146.304855 
	C1946.523315,316.355347 1946.523315,485.739716 1946.523315,655.987305 
	C1951.166626,655.987305 1955.100708,655.986328 1959.034790,655.987427 
	C2039.332886,656.009583 2119.630859,655.986572 2199.928955,656.078979 
	C2228.098145,656.111389 2255.772949,652.507202 2282.601318,644.019043 
	C2321.642578,631.666870 2351.826660,608.994141 2366.682861,569.204956 
	C2371.503174,556.295044 2374.084961,542.975708 2375.230713,529.300171 
	C2380.059814,471.667847 2351.766846,422.564667 2299.645020,398.085693 
	C2296.980469,396.834290 2294.557129,395.069244 2292.033691,392.251953 
M98.050064,653.737366 
	C100.519371,658.054077 104.650520,655.788513 107.856972,655.793945 
	C193.919006,655.939697 279.981384,655.898438 366.043701,655.851624 
	C370.014862,655.849426 373.985809,655.502075 379.593475,655.594482 
	C383.887512,655.115051 388.178070,654.601685 392.476196,654.162170 
	C413.403412,652.022034 433.861267,647.710327 453.394348,639.837585 
	C494.344482,623.332520 521.892761,594.731506 531.017517,550.693176 
	C533.420715,539.094727 534.398560,526.903992 533.951965,515.063660 
	C532.077942,465.372314 509.495728,427.697876 466.406738,402.557678 
	C461.603790,399.755402 456.680878,397.158722 452.041046,393.009369 
	C453.941376,391.053284 455.567200,388.657837 457.813080,387.254852 
	C460.486389,385.584900 462.405640,383.929047 462.929321,379.515625 
	C477.239014,368.341858 489.790497,355.712402 497.854645,339.078339 
	C516.001709,301.646149 516.643494,263.125092 503.359528,224.531189 
	C493.962158,197.228989 476.262421,176.230011 450.179382,162.272171 
	C429.321747,151.110580 407.270874,145.964355 384.034760,145.904938 
	C290.448456,145.665558 196.861176,145.798523 103.274269,145.809311 
	C101.701942,145.809494 100.129631,146.003052 97.697243,146.162903 
	C97.697243,149.638809 97.697243,152.562531 97.697243,155.486267 
	C97.697311,316.682159 97.693298,477.878021 97.719467,639.073914 
	C97.720161,643.388245 98.047966,647.702515 98.050064,653.737366 
M3231.783691,395.414581 
	C3231.418457,393.526123 3231.053467,391.637665 3230.679199,389.701935 
	C3232.778076,386.367432 3239.135742,386.436035 3238.935303,379.532257 
	C3260.156250,363.488892 3274.189941,342.535675 3281.072021,316.916443 
	C3290.020996,283.602753 3287.290283,250.824463 3274.855713,218.929657 
	C3266.000732,196.217865 3250.709229,178.521790 3229.958496,165.601898 
	C3207.501953,151.619705 3182.643066,145.999908 3156.635986,145.915115 
	C3066.666748,145.621750 2976.696045,145.786957 2886.726074,145.804977 
	C2883.490723,145.805618 2880.255371,146.094421 2876.650879,146.266571 
	C2876.650879,316.304352 2876.650879,485.705719 2876.650879,656.022156 
	C2880.516113,656.022156 2883.778809,656.021973 2887.041504,656.022217 
	C2970.347168,656.028381 3053.652588,656.092957 3136.958252,656.007446 
	C3164.095947,655.979553 3190.740234,652.048584 3216.655518,643.986938 
	C3250.422119,633.482910 3277.616455,614.455872 3294.033691,582.181030 
	C3307.482178,555.742065 3310.614258,527.482971 3306.912842,498.522949 
	C3302.389404,463.132690 3285.880859,434.306763 3256.724609,413.270020 
	C3248.646484,407.441284 3240.041016,402.343079 3231.783691,395.414581 
M1135.271973,516.350403 
	C1162.289429,476.458649 1189.307007,436.566895 1216.342407,396.648529 
	C1228.426880,405.774506 1240.549683,413.181458 1250.427490,422.875793 
	C1260.502441,432.763611 1268.370850,444.899567 1277.773804,456.768799 
	C1306.752075,419.908997 1335.717285,383.065857 1365.320557,345.411072 
	C1431.549683,449.334412 1497.361816,552.603638 1562.902832,655.447266 
	C1579.317627,655.447266 1594.794678,655.447266 1611.800049,655.447266 
	C1552.003662,484.027405 1492.546509,313.580048 1433.158691,143.331223 
	C1436.312378,140.478455 1438.494507,138.456009 1440.728027,136.491882 
	C1456.751831,122.400658 1462.257446,102.202988 1454.935425,82.208656 
	C1448.869385,65.643845 1436.519775,56.035290 1419.143921,54.400169 
	C1403.545654,52.932323 1390.365234,58.427082 1381.508057,72.201927 
	C1379.753052,74.931396 1377.724121,77.484772 1375.950317,79.941010 
	C1326.960815,62.879345 1282.689941,62.529423 1231.159424,79.843315 
	C1229.786377,77.777451 1228.335449,75.609718 1226.899780,73.432068 
	C1217.101807,58.571526 1201.029175,51.420555 1184.899292,54.749504 
	C1166.752441,58.494698 1152.469727,72.669258 1149.483643,89.807259 
	C1146.082397,109.328224 1152.566040,125.150734 1167.356812,137.889374 
	C1169.343018,139.599945 1171.405884,141.221344 1173.735352,143.131714 
	C1114.171387,313.853943 1054.700562,484.309235 994.747559,656.146362 
	C1007.541260,656.146362 1018.817322,655.557495 1029.997437,656.339783 
	C1038.367554,656.925598 1043.786865,654.562134 1047.571167,646.906799 
	C1050.352661,641.280029 1054.368652,636.256104 1057.904419,631.010803 
	C1083.406616,593.179199 1108.926758,555.359741 1135.271973,516.350403 
M1754.276611,614.999634 
	C1754.258911,559.691650 1754.474976,504.381989 1754.078369,449.076721 
	C1753.962280,432.876221 1758.771362,419.125549 1769.176880,406.929382 
	C1781.270264,392.754974 1795.744141,381.828522 1812.595703,373.987946 
	C1829.469849,366.136932 1847.353149,362.779205 1865.832031,362.095398 
	C1871.713745,361.877747 1877.594604,361.641144 1883.382080,361.416901 
	C1883.382080,329.706482 1883.382080,298.913116 1883.382080,267.342194 
	C1820.389404,265.709320 1776.516113,295.062683 1746.234009,347.926971 
	C1745.607788,347.704132 1744.981689,347.481293 1744.355469,347.258453 
	C1744.355469,322.927948 1744.355469,298.597473 1744.355469,274.225708 
	C1711.710693,274.225708 1680.535889,274.225708 1648.809082,274.225708 
	C1648.809082,401.547302 1648.809082,528.310669 1648.809082,655.473450 
	C1684.133423,655.473450 1718.893677,655.473450 1754.279907,655.473450 
	C1754.279907,642.209473 1754.279907,629.604370 1754.276611,614.999634 
M1227.872803,965.000000 
	C1227.869019,975.330200 1227.824097,985.660645 1227.872925,995.990601 
	C1227.922729,1006.502136 1227.566528,1017.036865 1228.010132,1027.523682 
	C1244.548340,1027.523682 1259.732178,1027.523682 1275.897461,1027.523682 
	C1275.897461,1001.516602 1275.897461,976.032471 1275.897461,949.642395 
	C1285.765869,949.642395 1294.801758,950.609192 1303.544434,949.420776 
	C1317.426880,947.533752 1325.204590,952.840881 1331.478149,965.285461 
	C1341.203491,984.577148 1353.152222,1002.738403 1363.800171,1021.581238 
	C1366.655884,1026.634399 1370.087769,1028.391113 1375.782349,1028.208252 
	C1388.432129,1027.802490 1401.103516,1028.091797 1413.765869,1028.030151 
	C1415.876831,1028.019897 1417.986328,1027.668823 1421.345459,1027.360718 
	C1403.956543,997.604736 1387.250122,969.016724 1370.356567,940.108276 
	C1372.111206,938.759766 1373.312866,937.656189 1374.676270,936.815002 
	C1405.819458,917.601379 1413.651733,883.597229 1407.032593,853.099731 
	C1399.682129,819.231628 1369.490356,795.448486 1333.810547,794.813232 
	C1300.498047,794.220032 1267.168091,794.588257 1233.845825,794.605225 
	C1231.982544,794.606201 1230.119507,795.261536 1228.489502,795.568420 
	C1228.183472,796.768799 1227.876465,797.411499 1227.876221,798.054321 
	C1227.859253,853.036194 1227.865967,908.018127 1227.872803,965.000000 
M1973.825073,842.818054 
	C1960.453003,860.787903 1955.045166,881.581970 1952.773315,903.360229 
	C1947.954834,949.552246 1974.189087,997.579956 2015.787842,1018.163147 
	C2081.704834,1050.779053 2165.578369,1017.100647 2181.343994,935.526428 
	C2188.437500,898.822815 2180.453369,864.418945 2155.991699,835.284241 
	C2126.779297,800.491760 2089.479980,786.492676 2044.552856,795.297180 
	C2015.039795,801.081055 1992.288574,817.667725 1973.825073,842.818054 
M1495.071655,794.596008 
	C1488.179199,794.596008 1481.286621,794.596008 1474.274902,794.596008 
	C1474.274902,873.093567 1474.274902,950.225647 1474.274902,1027.475464 
	C1529.773071,1027.475464 1584.562256,1027.475464 1639.796875,1027.475464 
	C1639.796875,1013.940369 1639.796875,1001.073853 1639.796875,987.311768 
	C1600.539673,987.311768 1561.691162,987.311768 1522.354614,987.311768 
	C1522.354614,967.356201 1522.354614,948.300171 1522.354614,928.384155 
	C1555.219849,928.384155 1587.365845,928.384155 1619.520996,928.384155 
	C1619.520996,915.019409 1619.520996,902.529785 1619.520996,888.978760 
	C1586.730225,888.978760 1554.581177,888.978760 1522.286987,888.978760 
	C1522.286987,870.787598 1522.286987,853.684021 1522.286987,836.077515 
	C1535.556274,836.077515 1548.166016,836.078247 1560.775757,836.077271 
	C1573.105103,836.076294 1585.434448,836.108093 1597.763672,836.062012 
	C1610.265259,836.015259 1622.766602,835.890686 1635.265869,835.800232 
	C1635.265869,821.450806 1635.265869,808.588440 1635.265869,794.610962 
	C1588.832031,794.610962 1542.942993,794.610962 1495.071655,794.596008 
M1335.975098,510.903473 
	C1311.954590,490.219513 1272.613770,498.855774 1256.854736,527.149048 
	C1251.335449,537.058289 1249.220703,547.630371 1249.231201,558.807739 
	C1249.259155,588.793091 1249.234131,618.778381 1249.284424,648.763672 
	C1249.288208,650.950562 1249.730103,653.136719 1249.997070,655.586548 
	C1286.204834,655.586548 1321.692017,655.586548 1358.061401,655.586548 
	C1358.061401,651.842773 1358.058472,648.595520 1358.061890,645.348267 
	C1358.090698,617.361755 1357.817505,589.370544 1358.253174,561.390320 
	C1358.562500,541.518738 1352.479492,524.789612 1335.975098,510.903473 
z"/>
<path fill="#3E3F3A" opacity="1.000000" stroke="none" 
	d="
M3231.677490,396.909668 
	C3240.041016,402.343079 3248.646484,407.441284 3256.724609,413.270020 
	C3285.880859,434.306763 3302.389404,463.132690 3306.912842,498.522949 
	C3310.614258,527.482971 3307.482178,555.742065 3294.033691,582.181030 
	C3277.616455,614.455872 3250.422119,633.482910 3216.655518,643.986938 
	C3190.740234,652.048584 3164.095947,655.979553 3136.958252,656.007446 
	C3053.652588,656.092957 2970.347168,656.028381 2887.041504,656.022217 
	C2883.778809,656.021973 2880.516113,656.022156 2876.650879,656.022156 
	C2876.650879,485.705719 2876.650879,316.304352 2876.650879,146.266571 
	C2880.255371,146.094421 2883.490723,145.805618 2886.726074,145.804977 
	C2976.696045,145.786957 3066.666748,145.621750 3156.635986,145.915115 
	C3182.643066,145.999908 3207.501953,151.619705 3229.958496,165.601898 
	C3250.709229,178.521790 3266.000732,196.217865 3274.855713,218.929657 
	C3287.290283,250.824463 3290.020996,283.602753 3281.072021,316.916443 
	C3274.189941,342.535675 3260.156250,363.488892 3237.830566,380.204712 
	C3231.222412,384.265564 3225.718506,387.653931 3218.718750,391.963348 
	C3223.921631,393.949249 3227.799561,395.429443 3231.677490,396.909668 
M3075.000000,569.985229 
	C3078.999268,569.993347 3083.001465,570.104919 3086.997314,569.991943 
	C3105.956055,569.455811 3125.120605,570.436462 3143.829346,567.972046 
	C3190.502441,561.824158 3213.686768,509.670593 3188.679199,469.356018 
	C3175.236084,447.684570 3155.429199,438.916504 3130.570801,439.032806 
	C3084.581543,439.247955 3038.590576,439.100952 2992.600342,439.131714 
	C2990.013672,439.133453 2987.426758,439.379089 2984.493408,439.528931 
	C2984.493408,483.093872 2984.493408,526.189941 2984.493408,569.984985 
	C3014.471680,569.984985 3043.735840,569.984985 3075.000000,569.985229 
M3165.713135,334.646149 
	C3167.119385,332.788727 3168.657959,331.016205 3169.911865,329.061035 
	C3189.290527,298.848328 3182.857422,241.195816 3130.052490,232.602661 
	C3125.147217,231.804382 3120.107178,231.540344 3115.128906,231.531754 
	C3074.152344,231.461044 3033.176025,231.496216 2992.199463,231.553925 
	C2989.669189,231.557495 2987.139404,232.022736 2984.588135,232.275269 
	C2984.588135,273.743439 2984.588135,314.509888 2984.588135,355.279602 
	C2986.205566,355.578033 2987.157471,355.907043 2988.109619,355.907379 
	C3031.084961,355.923309 3074.074219,356.544312 3117.029053,355.597229 
	C3134.881836,355.203583 3151.677246,349.134766 3165.713135,334.646149 
z"/>
<path fill="#3E3F39" opacity="1.000000" stroke="none" 
	d="
M451.813599,394.466675 
	C456.680878,397.158722 461.603790,399.755402 466.406738,402.557678 
	C509.495728,427.697876 532.077942,465.372314 533.951965,515.063660 
	C534.398560,526.903992 533.420715,539.094727 531.017517,550.693176 
	C521.892761,594.731506 494.344482,623.332520 453.394348,639.837585 
	C433.861267,647.710327 413.403412,652.022034 392.476196,654.162170 
	C388.178070,654.601685 383.887512,655.115051 378.515259,654.726868 
	C373.994720,653.239624 370.552917,652.082581 367.109955,652.078979 
	C277.481140,651.985291 187.852173,652.011414 98.223236,652.016846 
	C98.047966,647.702515 97.720161,643.388245 97.719467,639.073914 
	C97.693298,477.878021 97.697311,316.682159 97.697243,155.486267 
	C97.697243,152.562531 97.697243,149.638809 97.697243,146.162903 
	C100.129631,146.003052 101.701942,145.809494 103.274269,145.809311 
	C196.861176,145.798523 290.448456,145.665558 384.034760,145.904938 
	C407.270874,145.964355 429.321747,151.110580 450.179382,162.272171 
	C476.262421,176.230011 493.962158,197.228989 503.359528,224.531189 
	C516.643494,263.125092 516.001709,301.646149 497.854645,339.078339 
	C489.790497,355.712402 477.239014,368.341858 461.825256,380.178162 
	C455.345673,384.110413 449.970154,387.380127 443.737335,391.171295 
	C447.103516,392.544830 449.458557,393.505768 451.813599,394.466675 
M348.974792,439.225494 
	C301.496216,439.225494 254.017639,439.225494 206.689575,439.225494 
	C204.731934,456.012939 205.473892,562.796448 207.545135,569.952087 
	C209.093964,569.952087 210.740204,569.950806 212.386444,569.952332 
	C255.695755,569.992676 299.005066,570.050964 342.314362,570.053284 
	C348.308380,570.053589 354.318634,570.009460 360.293793,569.591492 
	C401.305450,566.723145 426.217804,539.938110 423.737091,500.347473 
	C422.000336,472.630066 406.083923,448.963104 377.636353,441.866852 
	C369.058258,439.727051 359.870575,440.031006 348.974792,439.225494 
M227.053879,355.984619 
	C265.341156,355.959412 303.639618,356.493103 341.912048,355.726746 
	C370.904572,355.146179 395.637543,341.174042 402.712524,310.870850 
	C408.239441,287.198181 404.996796,265.083374 386.667694,247.273865 
	C374.188507,235.148438 358.361847,231.636429 341.628235,231.584320 
	C298.680420,231.450577 255.731873,231.531525 212.783676,231.583633 
	C210.595291,231.586288 208.407547,232.122360 206.504669,232.372559 
	C206.504669,273.804718 206.504669,314.556244 206.504669,355.984528 
	C213.182953,355.984528 219.130844,355.984528 227.053879,355.984619 
z"/>
<path fill="#3E3F3A" opacity="1.000000" stroke="none" 
	d="
M2292.021484,393.543335 
	C2294.557129,395.069244 2296.980469,396.834290 2299.645020,398.085693 
	C2351.766846,422.564667 2380.059814,471.667847 2375.230713,529.300171 
	C2374.084961,542.975708 2371.503174,556.295044 2366.682861,569.204956 
	C2351.826660,608.994141 2321.642578,631.666870 2282.601318,644.019043 
	C2255.772949,652.507202 2228.098145,656.111389 2199.928955,656.078979 
	C2119.630859,655.986572 2039.332886,656.009583 1959.034790,655.987427 
	C1955.100708,655.986328 1951.166626,655.987305 1946.523315,655.987305 
	C1946.523315,485.739716 1946.523315,316.355347 1946.523315,146.304855 
	C1949.380493,146.138245 1952.268188,145.823364 1955.155884,145.822723 
	C2045.449463,145.802689 2135.746582,145.344025 2226.034668,146.059372 
	C2260.230225,146.330292 2291.637939,156.382370 2317.081055,180.922104 
	C2333.112061,196.383575 2343.545410,214.920654 2348.787842,236.494949 
	C2356.452148,268.034576 2356.228516,299.264008 2344.137451,329.709747 
	C2335.716797,350.912689 2322.553955,368.622711 2302.938721,381.010468 
	C2299.625000,383.103210 2296.471191,385.449188 2292.016113,387.949310 
	C2289.450439,389.104065 2288.112305,389.987701 2285.883789,391.459045 
	C2288.693359,392.413147 2290.357422,392.978241 2292.021484,393.543335 
M2264.590332,492.753967 
	C2261.466553,473.345123 2252.637939,457.729095 2235.150146,447.613464 
	C2224.449219,441.423706 2212.952881,439.022186 2200.742188,439.053131 
	C2154.470215,439.170410 2108.198486,439.212402 2061.926514,439.330444 
	C2059.413574,439.336853 2056.901367,439.777802 2054.329834,440.022095 
	C2054.329834,483.541168 2054.329834,526.334656 2054.329834,569.712036 
	C2056.375977,569.868286 2057.958984,570.094238 2059.542236,570.094727 
	C2103.817139,570.107300 2148.093018,570.217896 2192.366455,569.974487 
	C2199.966553,569.932739 2207.676025,568.936157 2215.129150,567.389038 
	C2231.717773,563.945618 2245.286865,555.644897 2254.822754,541.186462 
	C2264.274658,526.855896 2266.905762,511.189697 2264.590332,492.753967 
M2233.845459,251.315231 
	C2220.145020,235.792130 2202.003418,231.575638 2182.428711,231.506271 
	C2142.461670,231.364639 2102.493896,231.450363 2062.526367,231.477921 
	C2059.964844,231.479675 2057.403564,231.784622 2054.401367,231.976746 
	C2054.401367,273.385986 2054.401367,314.165039 2054.401367,355.969299 
	C2058.128418,355.969299 2061.380615,355.970032 2064.632812,355.969208 
	C2103.601074,355.959595 2142.569580,355.906769 2181.537842,355.966980 
	C2192.738037,355.984283 2203.250488,353.290802 2213.369629,348.722687 
	C2232.527588,340.074097 2243.265625,325.139099 2246.693848,304.552338 
	C2249.867188,285.497009 2245.654053,268.232544 2233.845459,251.315231 
z"/>
<path fill="#3E3F3A" opacity="1.000000" stroke="none" 
	d="
M1134.856689,516.943420 
	C1108.926758,555.359741 1083.406616,593.179199 1057.904419,631.010803 
	C1054.368652,636.256104 1050.352661,641.280029 1047.571167,646.906799 
	C1043.786865,654.562134 1038.367554,656.925598 1029.997437,656.339783 
	C1018.817322,655.557495 1007.541260,656.146362 994.747559,656.146362 
	C1054.700562,484.309235 1114.171387,313.853943 1173.735352,143.131714 
	C1171.405884,141.221344 1169.343018,139.599945 1167.356812,137.889374 
	C1152.566040,125.150734 1146.082397,109.328224 1149.483643,89.807259 
	C1152.469727,72.669258 1166.752441,58.494698 1184.899292,54.749504 
	C1201.029175,51.420555 1217.101807,58.571526 1226.899780,73.432068 
	C1228.335449,75.609718 1229.786377,77.777451 1231.159424,79.843315 
	C1282.689941,62.529423 1326.960815,62.879345 1375.950317,79.941010 
	C1377.724121,77.484772 1379.753052,74.931396 1381.508057,72.201927 
	C1390.365234,58.427082 1403.545654,52.932323 1419.143921,54.400169 
	C1436.519775,56.035290 1448.869385,65.643845 1454.935425,82.208656 
	C1462.257446,102.202988 1456.751831,122.400658 1440.728027,136.491882 
	C1438.494507,138.456009 1436.312378,140.478455 1433.158691,143.331223 
	C1492.546509,313.580048 1552.003662,484.027405 1611.800049,655.447266 
	C1594.794678,655.447266 1579.317627,655.447266 1562.902832,655.447266 
	C1497.361816,552.603638 1431.549683,449.334412 1365.320557,345.411072 
	C1335.717285,383.065857 1306.752075,419.908997 1277.773804,456.768799 
	C1268.370850,444.899567 1260.502441,432.763611 1250.427490,422.875793 
	C1240.549683,413.181458 1228.426880,405.774506 1216.342407,396.648529 
	C1189.307007,436.566895 1162.289429,476.458649 1134.856689,516.943420 
M1285.745605,295.604034 
	C1290.125610,293.692719 1291.110352,290.277039 1290.554932,285.795593 
	C1289.709473,278.976654 1285.520752,274.384674 1280.847046,269.998932 
	C1275.834961,265.295654 1272.230835,259.817474 1271.927856,252.710617 
	C1271.614990,245.371674 1275.371948,239.850937 1282.570435,239.512756 
	C1296.187866,238.873001 1309.887817,238.710556 1323.489136,239.483124 
	C1331.563843,239.941772 1334.629272,245.116653 1334.573853,253.302628 
	C1334.528809,259.953766 1330.552246,264.243713 1326.607056,268.853455 
	C1322.971313,273.101685 1319.250488,277.545441 1316.915039,282.534119 
	C1315.588379,285.368195 1315.615723,290.905762 1317.462524,292.642181 
	C1319.876587,294.911987 1324.665405,294.981293 1328.488770,295.281525 
	C1330.247070,295.419617 1332.192139,293.958557 1333.962280,293.047302 
	C1352.669556,283.417053 1360.201904,263.326843 1351.855591,242.759583 
	C1342.973145,220.871445 1333.253296,199.320862 1323.727051,177.698593 
	C1322.269897,174.391449 1320.156128,171.276184 1317.884155,168.442505 
	C1308.813354,157.129532 1296.333618,157.421127 1287.954712,169.333527 
	C1284.722290,173.928879 1282.044556,179.018341 1279.787598,184.177338 
	C1271.117676,203.994919 1262.286255,223.763733 1254.480591,243.924530 
	C1252.068604,250.154495 1251.635132,257.663452 1252.193604,264.430115 
	C1253.612183,281.613708 1267.188965,294.397797 1285.745605,295.604034 
z"/>
<path fill="#3E3F39" opacity="1.000000" stroke="none" 
	d="
M760.026184,495.458313 
	C740.710449,495.616791 721.394836,495.781433 702.078979,495.928864 
	C697.782532,495.961670 693.485596,495.933716 689.211853,495.933716 
	C688.430847,528.233887 717.601318,567.047180 751.804504,580.490356 
	C775.869141,589.948669 800.532593,590.468567 825.280518,582.949402 
	C850.474548,575.294617 868.238098,558.353027 882.723450,535.803589 
	C911.160461,544.515259 939.668701,553.248779 968.852295,562.189148 
	C967.669678,564.980347 967.077698,567.175781 965.914124,569.008179 
	C930.778503,624.336548 880.852539,655.629395 815.406433,662.284485 
	C775.188538,666.374084 735.987122,662.559509 698.905151,646.338867 
	C642.019165,621.455505 602.649780,580.169739 587.350220,518.890442 
	C577.980286,481.360718 578.031860,443.152344 590.116699,406.338409 
	C610.396729,344.559570 650.149658,300.621368 712.948914,279.213776 
	C746.857239,267.654724 781.603577,263.897186 816.859497,268.498322 
	C848.897583,272.679535 879.643738,281.711426 906.399353,301.108459 
	C936.823853,323.165375 959.316711,351.367920 973.704346,386.179474 
	C986.475342,417.079376 989.489258,449.268799 986.771179,483.157349 
	C976.376221,491.262207 965.387512,490.014893 954.588379,490.010437 
	C870.623047,489.975708 786.657654,489.987061 702.692322,489.984192 
	C699.161072,489.984070 695.629883,489.984131 692.098633,489.984131 
	C692.093018,490.661530 692.087341,491.338898 692.081665,492.016296 
	C695.332825,492.016296 698.583923,492.016418 701.835083,492.016266 
	C718.494873,492.015533 735.155029,491.957642 751.814148,492.065704 
	C754.874939,492.085541 758.812256,490.678467 760.026184,495.458313 
M685.017395,426.872589 
	C685.017395,426.872589 684.880188,427.240234 683.954285,425.896606 
	C681.617859,425.747253 679.281372,425.597931 676.944946,425.448578 
	C677.111511,426.621063 677.278015,427.793579 677.444519,428.966095 
	C679.735962,428.498199 682.031799,428.049652 684.312195,427.533173 
	C684.546692,427.480072 684.689270,427.021179 685.017395,426.872589 
M880.295959,418.964478 
	C871.392151,377.637756 842.687683,348.644470 802.698181,343.283295 
	C761.212341,337.721497 727.102295,351.042908 704.090149,387.517548 
	C696.031982,400.289856 690.918945,414.374908 688.354004,430.973999 
	C689.975708,435.435272 693.865295,433.938293 696.894287,433.942261 
	C759.163818,434.024170 821.433350,434.000854 883.702942,433.995209 
	C885.034668,433.995087 886.371155,434.022064 887.697144,433.924347 
	C891.889404,433.615387 893.518311,430.532288 893.581055,427.120758 
	C893.643677,423.710541 892.118774,420.488281 887.956299,420.126221 
	C885.650024,419.925598 883.302979,420.193268 880.295959,418.964478 
z"/>
<path fill="#3E403A" opacity="1.000000" stroke="none" 
	d="
M2569.885498,295.958740 
	C2581.462646,290.154053 2592.713379,283.543121 2604.679932,278.701141 
	C2636.120605,265.979462 2668.913818,264.117828 2701.935791,270.225372 
	C2743.196777,277.856720 2770.294678,302.581970 2784.270020,341.953796 
	C2793.068848,366.742584 2796.330566,392.524780 2796.424072,418.583557 
	C2796.700684,495.574402 2796.395996,572.567383 2796.304443,649.559509 
	C2796.302490,651.220276 2796.129395,652.880798 2795.993896,655.292480 
	C2761.216064,655.292480 2726.484375,655.292480 2690.731201,655.292480 
	C2690.731201,647.135376 2690.731934,639.211426 2690.731201,631.287415 
	C2690.723877,567.293884 2690.759277,503.300262 2690.677002,439.306793 
	C2690.656982,423.606171 2689.551514,408.061646 2683.794922,393.133911 
	C2672.131104,362.889435 2645.303711,348.920441 2613.885498,357.534302 
	C2581.533936,366.403992 2561.546875,388.967590 2547.796875,418.288147 
	C2542.274170,430.064636 2540.812744,442.435211 2540.832520,455.238617 
	C2540.928223,517.231079 2540.890137,579.223694 2540.899170,641.216248 
	C2540.899902,645.843933 2540.899414,650.471558 2540.899414,655.572754 
	C2505.767822,655.572754 2471.551758,655.572754 2437.371582,655.572754 
	C2435.302002,648.423889 2434.277832,301.295349 2436.267822,274.403625 
	C2466.971680,274.403625 2497.739502,274.403625 2529.975586,274.403625 
	C2529.975586,279.753845 2529.975586,284.976044 2529.971436,292.013489 
	C2529.967285,308.080017 2529.967285,322.331268 2529.967285,336.582520 
	C2541.493164,320.438263 2554.936279,307.483521 2569.885498,295.958740 
z"/>
<path fill="#3E3F3A" opacity="1.000000" stroke="none" 
	d="
M1754.278320,615.999451 
	C1754.279907,629.604370 1754.279907,642.209473 1754.279907,655.473450 
	C1718.893677,655.473450 1684.133423,655.473450 1648.809082,655.473450 
	C1648.809082,528.310669 1648.809082,401.547302 1648.809082,274.225708 
	C1680.535889,274.225708 1711.710693,274.225708 1744.355469,274.225708 
	C1744.355469,298.597473 1744.355469,322.927948 1744.355469,347.258453 
	C1744.981689,347.481293 1745.607788,347.704132 1746.234009,347.926971 
	C1776.516113,295.062683 1820.389404,265.709320 1883.382080,267.342194 
	C1883.382080,298.913116 1883.382080,329.706482 1883.382080,361.416901 
	C1877.594604,361.641144 1871.713745,361.877747 1865.832031,362.095398 
	C1847.353149,362.779205 1829.469849,366.136932 1812.595703,373.987946 
	C1795.744141,381.828522 1781.270264,392.754974 1769.176880,406.929382 
	C1758.771362,419.125549 1753.962280,432.876221 1754.078369,449.076721 
	C1754.474976,504.381989 1754.258911,559.691650 1754.278320,615.999451 
z"/>
<path fill="#40423C" opacity="1.000000" stroke="none" 
	d="
M1227.871826,964.000000 
	C1227.865967,908.018127 1227.859253,853.036194 1227.876221,798.054321 
	C1227.876465,797.411499 1228.183472,796.768799 1228.489502,795.568420 
	C1230.119507,795.261536 1231.982544,794.606201 1233.845825,794.605225 
	C1267.168091,794.588257 1300.498047,794.220032 1333.810547,794.813232 
	C1369.490356,795.448486 1399.682129,819.231628 1407.032593,853.099731 
	C1413.651733,883.597229 1405.819458,917.601379 1374.676270,936.815002 
	C1373.312866,937.656189 1372.111206,938.759766 1370.356567,940.108276 
	C1387.250122,969.016724 1403.956543,997.604736 1421.345459,1027.360718 
	C1417.986328,1027.668823 1415.876831,1028.019897 1413.765869,1028.030151 
	C1401.103516,1028.091797 1388.432129,1027.802490 1375.782349,1028.208252 
	C1370.087769,1028.391113 1366.655884,1026.634399 1363.800171,1021.581238 
	C1353.152222,1002.738403 1341.203491,984.577148 1331.478149,965.285461 
	C1325.204590,952.840881 1317.426880,947.533752 1303.544434,949.420776 
	C1294.801758,950.609192 1285.765869,949.642395 1275.897461,949.642395 
	C1275.897461,976.032471 1275.897461,1001.516602 1275.897461,1027.523682 
	C1259.732178,1027.523682 1244.548340,1027.523682 1228.010132,1027.523682 
	C1227.566528,1017.036865 1227.922729,1006.502136 1227.872925,995.990601 
	C1227.824097,985.660645 1227.869019,975.330200 1227.871826,964.000000 
M1275.972046,843.393372 
	C1275.972046,864.586243 1275.972046,885.779114 1275.972046,907.627014 
	C1296.501343,907.627014 1316.064209,908.161255 1335.575928,907.395813 
	C1344.973755,907.027161 1352.260376,901.462708 1356.729858,892.721130 
	C1362.894043,880.664917 1362.700684,868.523560 1358.136353,856.033936 
	C1353.918457,844.492249 1345.373413,837.447327 1333.766479,836.645569 
	C1315.881592,835.410217 1297.861450,836.133972 1279.898682,836.019714 
	C1276.005371,835.994934 1275.923340,838.678711 1275.972046,843.393372 
z"/>
<path fill="#40413B" opacity="1.000000" stroke="none" 
	d="
M1974.223755,842.225830 
	C1992.288574,817.667725 2015.039795,801.081055 2044.552856,795.297180 
	C2089.479980,786.492676 2126.779297,800.491760 2155.991699,835.284241 
	C2180.453369,864.418945 2188.437500,898.822815 2181.343994,935.526428 
	C2165.578369,1017.100647 2081.704834,1050.779053 2015.787842,1018.163147 
	C1974.189087,997.579956 1947.954834,949.552246 1952.773315,903.360229 
	C1955.045166,881.581970 1960.453003,860.787903 1974.223755,842.225830 
M2013.130981,957.671387 
	C2014.891968,960.093384 2016.562256,962.587646 2018.427734,964.926331 
	C2041.662964,994.056824 2093.751465,999.327881 2119.978516,960.288818 
	C2139.640381,931.021912 2139.961914,899.588684 2122.997314,868.528320 
	C2110.915039,846.406677 2091.919678,835.482056 2066.631592,835.670715 
	C2041.416870,835.858765 2023.441406,848.593628 2011.736206,869.699524 
	C1995.834595,898.371582 1996.591797,927.624817 2013.130981,957.671387 
z"/>
<path fill="#40413B" opacity="1.000000" stroke="none" 
	d="
M1496.062744,794.603516 
	C1542.942993,794.610962 1588.832031,794.610962 1635.265869,794.610962 
	C1635.265869,808.588440 1635.265869,821.450806 1635.265869,835.800232 
	C1622.766602,835.890686 1610.265259,836.015259 1597.763672,836.062012 
	C1585.434448,836.108093 1573.105103,836.076294 1560.775757,836.077271 
	C1548.166016,836.078247 1535.556274,836.077515 1522.286987,836.077515 
	C1522.286987,853.684021 1522.286987,870.787598 1522.286987,888.978760 
	C1554.581177,888.978760 1586.730225,888.978760 1619.520996,888.978760 
	C1619.520996,902.529785 1619.520996,915.019409 1619.520996,928.384155 
	C1587.365845,928.384155 1555.219849,928.384155 1522.354614,928.384155 
	C1522.354614,948.300171 1522.354614,967.356201 1522.354614,987.311768 
	C1561.691162,987.311768 1600.539673,987.311768 1639.796875,987.311768 
	C1639.796875,1001.073853 1639.796875,1013.940369 1639.796875,1027.475464 
	C1584.562256,1027.475464 1529.773071,1027.475464 1474.274902,1027.475464 
	C1474.274902,950.225647 1474.274902,873.093567 1474.274902,794.596008 
	C1481.286621,794.596008 1488.179199,794.596008 1496.062744,794.603516 
z"/>
<path fill="#43443E" opacity="1.000000" stroke="none" 
	d="
M1783.973145,862.539062 
	C1799.752441,882.229004 1815.530762,901.919678 1831.311523,921.608337 
	C1836.423706,927.986572 1841.542114,934.359741 1847.851929,942.223511 
	C1850.522827,930.903198 1849.137329,921.425537 1849.361450,912.075500 
	C1849.592773,902.420166 1849.510498,892.757080 1849.537964,883.097290 
	C1849.565430,873.437378 1849.579102,863.777222 1849.561523,854.117310 
	C1849.543945,844.457520 1849.463501,834.797974 1849.441772,825.138184 
	C1849.420288,815.497192 1849.437256,805.856018 1849.437256,795.410034 
	C1865.256714,795.410034 1880.630127,795.410034 1896.705566,795.410034 
	C1896.705566,872.848633 1896.705566,949.932739 1896.705566,1028.087402 
	C1884.320801,1028.087402 1872.401978,1028.424072 1860.530273,1027.825073 
	C1857.916016,1027.693115 1854.952271,1024.654541 1853.026978,1022.251404 
	C1837.412109,1002.760620 1822.047729,983.069458 1806.526489,963.503174 
	C1785.831787,937.415161 1765.064697,911.384460 1744.896606,884.677185 
	C1747.437378,884.978149 1750.035645,885.437012 1751.256958,886.983398 
	C1754.075928,890.552490 1757.146729,890.446045 1760.726196,889.148438 
	C1763.548340,883.442932 1766.089233,877.810852 1769.080322,872.428955 
	C1771.144775,868.714600 1773.596313,865.341797 1778.947388,865.791870 
	C1780.520264,865.924255 1782.292358,863.689087 1783.973145,862.539062 
z"/>
<path fill="#3E3F3A" opacity="1.000000" stroke="none" 
	d="
M1336.519897,511.373566 
	C1352.479492,524.789612 1358.562500,541.518738 1358.253174,561.390320 
	C1357.817505,589.370544 1358.090698,617.361755 1358.061890,645.348267 
	C1358.058472,648.595520 1358.061401,651.842773 1358.061401,655.586548 
	C1321.692017,655.586548 1286.204834,655.586548 1249.997070,655.586548 
	C1249.730103,653.136719 1249.288208,650.950562 1249.284424,648.763672 
	C1249.234131,618.778381 1249.259155,588.793091 1249.231201,558.807739 
	C1249.220703,547.630371 1251.335449,537.058289 1256.854736,527.149048 
	C1272.613770,498.855774 1311.954590,490.219513 1336.519897,511.373566 
M1339.224854,586.053955 
	C1338.741211,581.468567 1337.652710,577.480530 1331.692505,577.935181 
	C1326.917114,578.299438 1324.926392,580.375732 1324.486572,586.653320 
	C1324.150757,591.445312 1324.419800,596.279663 1324.419800,601.543823 
	C1329.620972,601.543823 1333.770020,601.543823 1339.307617,601.543823 
	C1339.307617,596.771484 1339.307617,592.273010 1339.224854,586.053955 
z"/>
<path fill="#3E3F39" opacity="1.000000" stroke="none" 
	d="
M1783.445557,862.071411 
	C1782.292358,863.689087 1780.520264,865.924255 1778.947388,865.791870 
	C1773.596313,865.341797 1771.144775,868.714600 1769.080322,872.428955 
	C1766.089233,877.810852 1763.548340,883.442932 1760.726196,889.148438 
	C1757.146729,890.446045 1754.075928,890.552490 1751.256958,886.983398 
	C1750.035645,885.437012 1747.437378,884.978149 1744.692017,884.028931 
	C1743.330200,884.381592 1742.740967,884.730591 1741.142334,885.642700 
	C1730.699585,893.673279 1731.303101,902.686279 1741.593140,908.012878 
	C1741.696533,912.756836 1741.800049,917.500793 1741.078003,923.203247 
	C1739.038940,925.489014 1737.825317,926.816345 1736.611572,928.143799 
	C1738.242432,929.434448 1739.873291,930.725159 1741.503906,932.015808 
	C1741.592041,961.391968 1741.680054,990.768066 1740.970215,1021.058044 
	C1738.808838,1022.768555 1734.410034,1019.871094 1736.481079,1025.049805 
	C1736.665527,1025.511108 1734.905518,1026.750000 1734.048462,1027.627686 
	C1721.143799,1027.627686 1708.239258,1027.627686 1694.618652,1027.627686 
	C1694.618652,950.337708 1694.618652,873.349365 1694.618652,795.128479 
	C1706.297363,794.063538 1718.148926,794.567139 1729.955688,795.027771 
	C1731.797241,795.099609 1733.925049,797.278931 1735.276855,798.991699 
	C1748.250366,815.429138 1761.137085,831.935913 1773.923950,848.518921 
	C1777.151001,852.703979 1779.932129,857.232849 1783.445557,862.071411 
M1728.460938,898.793823 
	C1727.249023,899.856750 1726.037109,900.919678 1724.825195,901.982483 
	C1725.216309,902.388611 1725.607422,902.794739 1725.998535,903.200928 
	C1727.091309,902.011108 1728.184204,900.821289 1728.460938,898.793823 
M1707.207031,1021.598938 
	C1706.425415,1021.590515 1705.643677,1021.582092 1704.862061,1021.573669 
	C1704.858887,1021.897888 1704.833984,1022.503906 1704.855713,1022.505554 
	C1705.633667,1022.565674 1706.415894,1022.569214 1707.207031,1021.598938 
z"/>
<path fill="#32332E" opacity="1.000000" stroke="none" 
	d="
M760.947021,495.634399 
	C758.812256,490.678467 754.874939,492.085541 751.814148,492.065704 
	C735.155029,491.957642 718.494873,492.015533 701.835083,492.016266 
	C698.583923,492.016418 695.332825,492.016296 692.081665,492.016296 
	C692.087341,491.338898 692.093018,490.661530 692.098633,489.984131 
	C695.629883,489.984131 699.161072,489.984070 702.692322,489.984192 
	C786.657654,489.987061 870.623047,489.975708 954.588379,490.010437 
	C965.387512,490.014893 976.376221,491.262207 986.513184,484.064880 
	C986.930786,487.846466 986.630554,491.657349 986.299866,495.853912 
	C980.889648,495.853912 976.327026,495.853912 970.665405,494.928528 
	C968.482910,493.374268 967.402710,492.202911 966.315552,492.196411 
	C943.910278,492.062439 921.503418,491.985687 899.099426,492.182281 
	C897.378784,492.197357 895.676636,494.325989 893.965881,495.472260 
	C891.843018,495.588715 889.720215,495.705200 886.666870,495.009064 
	C882.591858,491.233948 879.830872,490.615082 877.965698,495.468475 
	C870.591248,495.588654 863.216858,495.708801 854.739502,494.951416 
	C846.738892,490.814148 844.044373,491.092560 839.966797,495.486267 
	C833.255493,495.591156 826.544128,495.696045 818.784302,494.988037 
	C814.601013,491.242126 811.840881,490.617798 809.963867,495.436157 
	C793.931885,495.560913 777.899902,495.685699 760.947021,495.634399 
z"/>
<path fill="#32332E" opacity="1.000000" stroke="none" 
	d="
M98.136650,652.877075 
	C187.852173,652.011414 277.481140,651.985291 367.109955,652.078979 
	C370.552917,652.082581 373.994720,653.239624 377.696960,654.587341 
	C373.985809,655.502075 370.014862,655.849426 366.043701,655.851624 
	C279.981384,655.898438 193.919006,655.939697 107.856972,655.793945 
	C104.650520,655.788513 100.519371,658.054077 98.136650,652.877075 
z"/>
<path fill="#F7F8F5" opacity="1.000000" stroke="none" 
	d="
M2569.054688,295.958405 
	C2554.936279,307.483521 2541.493164,320.438263 2529.967285,336.582520 
	C2529.967285,322.331268 2529.967285,308.080017 2530.156006,292.907227 
	C2532.084473,292.661041 2535.131592,293.068329 2535.334717,294.058716 
	C2536.156738,298.068146 2537.989258,301.317383 2541.991943,301.504303 
	C2546.093750,301.695831 2550.923584,301.503143 2554.244873,299.502777 
	C2558.793701,296.763123 2563.189697,295.675781 2569.054688,295.958405 
z"/>
<path fill="#3E3F39" opacity="1.000000" stroke="none" 
	d="
M894.885315,495.678223 
	C895.676636,494.325989 897.378784,492.197357 899.099426,492.182281 
	C921.503418,491.985687 943.910278,492.062439 966.315552,492.196411 
	C967.402710,492.202911 968.482910,493.374268 969.798950,494.754700 
	C945.289307,495.632233 920.546997,495.758209 894.885315,495.678223 
z"/>
<path fill="#43443E" opacity="1.000000" stroke="none" 
	d="
M1741.779175,907.111450 
	C1731.303101,902.686279 1730.699585,893.673279 1740.843262,886.095825 
	C1741.690674,892.727295 1741.828003,899.468628 1741.779175,907.111450 
z"/>
<path fill="#F7F8F5" opacity="1.000000" stroke="none" 
	d="
M3231.730469,396.162109 
	C3227.799561,395.429443 3223.921631,393.949249 3218.718750,391.963348 
	C3225.718506,387.653931 3231.222412,384.265564 3237.378174,380.725525 
	C3239.135742,386.436035 3232.778076,386.367432 3230.679199,389.701935 
	C3231.053467,391.637665 3231.418457,393.526123 3231.730469,396.162109 
z"/>
<path fill="#F7F8F5" opacity="1.000000" stroke="none" 
	d="
M451.927307,393.738037 
	C449.458557,393.505768 447.103516,392.544830 443.737335,391.171295 
	C449.970154,387.380127 455.345673,384.110413 461.375366,380.699890 
	C462.405640,383.929047 460.486389,385.584900 457.813080,387.254852 
	C455.567200,388.657837 453.941376,391.053284 451.927307,393.738037 
z"/>
<path fill="#3E3F39" opacity="1.000000" stroke="none" 
	d="
M840.827576,495.693329 
	C844.044373,491.092560 846.738892,490.814148 853.834839,494.777710 
	C849.918152,495.621185 845.803284,495.760773 840.827576,495.693329 
z"/>
<path fill="#43443E" opacity="1.000000" stroke="none" 
	d="
M1734.819336,1027.827637 
	C1734.905518,1026.750000 1736.665527,1025.511108 1736.481079,1025.049805 
	C1734.410034,1019.871094 1738.808838,1022.768555 1740.765625,1021.973206 
	C1743.008789,1027.397095 1740.176758,1028.548340 1734.819336,1027.827637 
z"/>
<path fill="#43443E" opacity="1.000000" stroke="none" 
	d="
M1741.703369,931.227539 
	C1739.873291,930.725159 1738.242432,929.434448 1736.611572,928.143799 
	C1737.825317,926.816345 1739.038940,925.489014 1740.883057,924.073181 
	C1741.643188,926.136169 1741.773071,928.287720 1741.703369,931.227539 
z"/>
<path fill="#3E3F39" opacity="1.000000" stroke="none" 
	d="
M878.756714,495.675293 
	C879.830872,490.615082 882.591858,491.233948 885.885071,494.834839 
	C883.871704,495.609558 881.709656,495.745850 878.756714,495.675293 
z"/>
<path fill="#3E3F39" opacity="1.000000" stroke="none" 
	d="
M810.754761,495.645081 
	C811.840881,490.617798 814.601013,491.242126 817.885620,494.810913 
	C815.872253,495.582489 813.708984,495.718262 810.754761,495.645081 
z"/>
<path fill="#F7F8F5" opacity="1.000000" stroke="none" 
	d="
M2292.027588,392.897644 
	C2290.357422,392.978241 2288.693359,392.413147 2285.883789,391.459045 
	C2288.112305,389.987701 2289.450439,389.104065 2291.402344,388.299072 
	C2292.021973,389.669098 2292.027832,390.960541 2292.027588,392.897644 
z"/>
<path fill="#FCFCFA" opacity="1.000000" stroke="none" 
	d="
M3074.000000,569.985107 
	C3043.735840,569.984985 3014.471680,569.984985 2984.493408,569.984985 
	C2984.493408,526.189941 2984.493408,483.093872 2984.493408,439.528931 
	C2987.426758,439.379089 2990.013672,439.133453 2992.600342,439.131714 
	C3038.590576,439.100952 3084.581543,439.247955 3130.570801,439.032806 
	C3155.429199,438.916504 3175.236084,447.684570 3188.679199,469.356018 
	C3213.686768,509.670593 3190.502441,561.824158 3143.829346,567.972046 
	C3125.120605,570.436462 3105.956055,569.455811 3086.997314,569.991943 
	C3083.001465,570.104919 3078.999268,569.993347 3074.000000,569.985107 
z"/>
<path fill="#FBFCFB" opacity="1.000000" stroke="none" 
	d="
M3165.223145,335.166779 
	C3151.677246,349.134766 3134.881836,355.203583 3117.029053,355.597229 
	C3074.074219,356.544312 3031.084961,355.923309 2988.109619,355.907379 
	C2987.157471,355.907043 2986.205566,355.578033 2984.588135,355.279602 
	C2984.588135,314.509888 2984.588135,273.743439 2984.588135,232.275269 
	C2987.139404,232.022736 2989.669189,231.557495 2992.199463,231.553925 
	C3033.176025,231.496216 3074.152344,231.461044 3115.128906,231.531754 
	C3120.107178,231.540344 3125.147217,231.804382 3130.052490,232.602661 
	C3182.857422,241.195816 3189.290527,298.848328 3169.911865,329.061035 
	C3168.657959,331.016205 3167.119385,332.788727 3165.223145,335.166779 
z"/>
<path fill="#FCFCFA" opacity="1.000000" stroke="none" 
	d="
M349.968445,439.220520 
	C359.870575,440.031006 369.058258,439.727051 377.636353,441.866852 
	C406.083923,448.963104 422.000336,472.630066 423.737091,500.347473 
	C426.217804,539.938110 401.305450,566.723145 360.293793,569.591492 
	C354.318634,570.009460 348.308380,570.053589 342.314362,570.053284 
	C299.005066,570.050964 255.695755,569.992676 212.386444,569.952332 
	C210.740204,569.950806 209.093964,569.952087 207.545135,569.952087 
	C205.473892,562.796448 204.731934,456.012939 206.689575,439.225494 
	C254.017639,439.225494 301.496216,439.225494 349.968445,439.220520 
z"/>
<path fill="#FBFCFB" opacity="1.000000" stroke="none" 
	d="
M226.066315,355.984558 
	C219.130844,355.984528 213.182953,355.984528 206.504669,355.984528 
	C206.504669,314.556244 206.504669,273.804718 206.504669,232.372559 
	C208.407547,232.122360 210.595291,231.586288 212.783676,231.583633 
	C255.731873,231.531525 298.680420,231.450577 341.628235,231.584320 
	C358.361847,231.636429 374.188507,235.148438 386.667694,247.273865 
	C404.996796,265.083374 408.239441,287.198181 402.712524,310.870850 
	C395.637543,341.174042 370.904572,355.146179 341.912048,355.726746 
	C303.639618,356.493103 265.341156,355.959412 226.066315,355.984558 
z"/>
<path fill="#FCFCFA" opacity="1.000000" stroke="none" 
	d="
M2264.742188,493.605286 
	C2266.905762,511.189697 2264.274658,526.855896 2254.822754,541.186462 
	C2245.286865,555.644897 2231.717773,563.945618 2215.129150,567.389038 
	C2207.676025,568.936157 2199.966553,569.932739 2192.366455,569.974487 
	C2148.093018,570.217896 2103.817139,570.107300 2059.542236,570.094727 
	C2057.958984,570.094238 2056.375977,569.868286 2054.329834,569.712036 
	C2054.329834,526.334656 2054.329834,483.541168 2054.329834,440.022095 
	C2056.901367,439.777802 2059.413574,439.336853 2061.926514,439.330444 
	C2108.198486,439.212402 2154.470215,439.170410 2200.742188,439.053131 
	C2212.952881,439.022186 2224.449219,441.423706 2235.150146,447.613464 
	C2252.637939,457.729095 2261.466553,473.345123 2264.742188,493.605286 
z"/>
<path fill="#FBFCFB" opacity="1.000000" stroke="none" 
	d="
M2234.304688,251.881256 
	C2245.654053,268.232544 2249.867188,285.497009 2246.693848,304.552338 
	C2243.265625,325.139099 2232.527588,340.074097 2213.369629,348.722687 
	C2203.250488,353.290802 2192.738037,355.984283 2181.537842,355.966980 
	C2142.569580,355.906769 2103.601074,355.959595 2064.632812,355.969208 
	C2061.380615,355.970032 2058.128418,355.969299 2054.401367,355.969299 
	C2054.401367,314.165039 2054.401367,273.385986 2054.401367,231.976746 
	C2057.403564,231.784622 2059.964844,231.479675 2062.526367,231.477921 
	C2102.493896,231.450363 2142.461670,231.364639 2182.428711,231.506271 
	C2202.003418,231.575638 2220.145020,235.792130 2234.304688,251.881256 
z"/>
<path fill="#F7F8F5" opacity="1.000000" stroke="none" 
	d="
M1284.981689,295.743774 
	C1267.188965,294.397797 1253.612183,281.613708 1252.193604,264.430115 
	C1251.635132,257.663452 1252.068604,250.154495 1254.480591,243.924530 
	C1262.286255,223.763733 1271.117676,203.994919 1279.787598,184.177338 
	C1282.044556,179.018341 1284.722290,173.928879 1287.954712,169.333527 
	C1296.333618,157.421127 1308.813354,157.129532 1317.884155,168.442505 
	C1320.156128,171.276184 1322.269897,174.391449 1323.727051,177.698593 
	C1333.253296,199.320862 1342.973145,220.871445 1351.855591,242.759583 
	C1360.201904,263.326843 1352.669556,283.417053 1333.962280,293.047302 
	C1332.192139,293.958557 1330.247070,295.419617 1328.488770,295.281525 
	C1324.665405,294.981293 1319.876587,294.911987 1317.462524,292.642181 
	C1315.615723,290.905762 1315.588379,285.368195 1316.915039,282.534119 
	C1319.250488,277.545441 1322.971313,273.101685 1326.607056,268.853455 
	C1330.552246,264.243713 1334.528809,259.953766 1334.573853,253.302628 
	C1334.629272,245.116653 1331.563843,239.941772 1323.489136,239.483124 
	C1309.887817,238.710556 1296.187866,238.873001 1282.570435,239.512756 
	C1275.371948,239.850937 1271.614990,245.371674 1271.927856,252.710617 
	C1272.230835,259.817474 1275.834961,265.295654 1280.847046,269.998932 
	C1285.520752,274.384674 1289.709473,278.976654 1290.554932,285.795593 
	C1291.110352,290.277039 1290.125610,293.692719 1284.981689,295.743774 
z"/>
<path fill="#F9F9F7" opacity="1.000000" stroke="none" 
	d="
M688.219788,429.281219 
	C690.918945,414.374908 696.031982,400.289856 704.090149,387.517548 
	C727.102295,351.042908 761.212341,337.721497 802.698181,343.283295 
	C842.687683,348.644470 871.392151,377.637756 880.664307,420.445129 
	C881.182007,424.145996 881.331360,426.366211 881.548157,429.590057 
	C872.633057,429.590057 864.354065,429.602722 856.075012,429.588074 
	C800.123291,429.489014 744.171509,429.384155 688.219788,429.281219 
z"/>
<path fill="#32332E" opacity="1.000000" stroke="none" 
	d="
M688.286865,430.127625 
	C744.171509,429.384155 800.123291,429.489014 856.075012,429.588074 
	C864.354065,429.602722 872.633057,429.590057 881.548157,429.590057 
	C881.331360,426.366211 881.182007,424.145996 881.003540,421.087799 
	C883.302979,420.193268 885.650024,419.925598 887.956299,420.126221 
	C892.118774,420.488281 893.643677,423.710541 893.581055,427.120758 
	C893.518311,430.532288 891.889404,433.615387 887.697144,433.924347 
	C886.371155,434.022064 885.034668,433.995087 883.702942,433.995209 
	C821.433350,434.000854 759.163818,434.024170 696.894287,433.942261 
	C693.865295,433.938293 689.975708,435.435272 688.286865,430.127625 
z"/>
<path fill="#32332E" opacity="1.000000" stroke="none" 
	d="
M684.874512,426.750549 
	C684.689270,427.021179 684.546692,427.480072 684.312195,427.533173 
	C682.031799,428.049652 679.735962,428.498199 677.444519,428.966064 
	C677.278015,427.793579 677.111511,426.621063 676.944946,425.448578 
	C679.281372,425.597931 681.617859,425.747253 684.226990,426.444550 
	C684.499695,426.992493 684.874512,426.750580 684.874512,426.750549 
z"/>
<path fill="#F9F9F7" opacity="1.000000" stroke="none" 
	d="
M684.945923,426.811584 
	C684.874512,426.750580 684.499695,426.992493 684.689941,427.116364 
	C684.880188,427.240234 685.017395,426.872589 684.945923,426.811584 
z"/>
<path fill="#F9F9F7" opacity="1.000000" stroke="none" 
	d="
M1275.976562,842.434814 
	C1275.923340,838.678711 1276.005371,835.994934 1279.898682,836.019714 
	C1297.861450,836.133972 1315.881592,835.410217 1333.766479,836.645569 
	C1345.373413,837.447327 1353.918457,844.492249 1358.136353,856.033936 
	C1362.700684,868.523560 1362.894043,880.664917 1356.729858,892.721130 
	C1352.260376,901.462708 1344.973755,907.027161 1335.575928,907.395813 
	C1316.064209,908.161255 1296.501343,907.627014 1275.972046,907.627014 
	C1275.972046,885.779114 1275.972046,864.586243 1275.976562,842.434814 
z"/>
<path fill="#FBFBFA" opacity="1.000000" stroke="none" 
	d="
M2012.736328,957.049316 
	C1996.591797,927.624817 1995.834595,898.371582 2011.736206,869.699524 
	C2023.441406,848.593628 2041.416870,835.858765 2066.631592,835.670715 
	C2091.919678,835.482056 2110.915039,846.406677 2122.997314,868.528320 
	C2139.961914,899.588684 2139.640381,931.021912 2119.978516,960.288818 
	C2093.751465,999.327881 2041.662964,994.056824 2018.427734,964.926331 
	C2016.562256,962.587646 2014.891968,960.093384 2012.736328,957.049316 
z"/>
<path fill="#F7F8F5" opacity="1.000000" stroke="none" 
	d="
M1339.266235,586.914246 
	C1339.307617,592.273010 1339.307617,596.771484 1339.307617,601.543823 
	C1333.770020,601.543823 1329.620972,601.543823 1324.419800,601.543823 
	C1324.419800,596.279663 1324.150757,591.445312 1324.486572,586.653320 
	C1324.926392,580.375732 1326.917114,578.299438 1331.692505,577.935181 
	C1337.652710,577.480530 1338.741211,581.468567 1339.266235,586.914246 
z"/>
<path fill="#43443E" opacity="1.000000" stroke="none" 
	d="
M1728.868896,899.212646 
	C1728.184204,900.821289 1727.091309,902.011108 1725.998535,903.200928 
	C1725.607422,902.794739 1725.216309,902.388611 1724.825195,901.982544 
	C1726.037109,900.919678 1727.249023,899.856750 1728.868896,899.212646 
z"/>
<path fill="#43443E" opacity="1.000000" stroke="none" 
	d="
M1707.202393,1022.089844 
	C1706.415894,1022.569214 1705.633667,1022.565674 1704.855713,1022.505554 
	C1704.833984,1022.503906 1704.858887,1021.897888 1704.862061,1021.573608 
	C1705.643677,1021.582092 1706.425415,1021.590515 1707.202393,1022.089844 
z"/>
</svg>