<svg id="ewj93qC70XW1" xmlns="http://www.w3.org/2000/svg" xmlns:xlink="http://www.w3.org/1999/xlink" viewBox="990 50 630 620" shape-rendering="geometricPrecision" text-rendering="geometricPrecision" project-id="31aff290fe7b41f9bbe7101b62b10a71" export-id="9ef0e60d7bb5499f86cc8fd988d14f75" cached="false">

  <!-- Fill colors based on dark mode fill="#3e3f3a"-->
  <style>
    /* Default Color (For Light Mode Browsers) - Uses your Brand Dark Blue */
    path, circle, rect, polygon {
      fill: #FFFFFF;
    }

    /* Dark Mode Override (For Dark Mode Browsers) - Uses your Brand Gold */
    @media (prefers-color-scheme: dark) {
      path, circle, rect, polygon {
        fill: #D4AF37;
      }
    }
  </style>

    <path d="M1134.9,516.9c-26,38.5-69.314045,100.7-94.814045,138.5"/><path d="M1040.085955,656.1c-10.578868.085833-32.585955,0-45.385955,0c60-171.8,119.5-342.2,179-513-2.3-1.9-4.4-3.5-6.3-5.2-14.8-12.7-21.3-28.6-17.9-48.1c3-17.1,17.3-31.3,35.4-35.1c16.1-3.3,32.2,3.9,42,18.7c1.4,2.2,2.9,4.4,4.3,6.4c51.5-17.3,95.8-16.9,144.8.1c1.7-2.4,3.8-5,5.5-7.7c8.9-13.8,22-19.3,37.6-17.8c17.4,1.6,29.8,11.2,35.8,27.8c7.4,20,1.9,40.2-14.2,54.3-2.2,2-4.4,4-7.5,6.8C1492.5,313.6,1552,484,1611.8,655.4c-17,0-32.5,0-48.9,0-65.5-102.8-131.4-206.1-197.6-310-29.6,37.7-58.5,74.5-87.5,111.4-9.4-11.9-17.3-24-27.4-33.9-9.9-9.7-22-17.1-34.1-26.3-27,40-54,79.9-81.4,120.3m150.8-221.3c4.4-1.9,5.4-5.3,4.9-9.8-.9-6.8-5.1-11.4-9.8-15.8-5-4.7-8.6-10.2-8.9-17.3-.3-7.3,3.5-12.8,10.7-13.2c13.6-.6,27.3-.8,40.9,0c8.1.4,11.1,5.6,11.1,13.8-.1,6.7-4,10.9-8,15.6-3.6,4.2-7.3,8.6-9.7,13.6-1.3,2.9-1.3,8.4.6,10.1c2.4,2.3,3.2,2.7,7,3c1.7.1,7.7-1.6,9.5-2.6c18.7-9.6,26.2-29.7,17.9-50.2-8.9-21.9-18.6-43.5-28.2-65.1-1.4-3.3-3.5-6.4-5.8-9.3-9.1-11.3-21.6-11-29.9.9-3.3,4.6-6,9.7-8.2,14.9-8.7,19.8-17.5,39.6-25.3,59.7-2.4,6.3-2.9,13.8-2.3,20.5c1.4,17.2,15,30,33.5,31.2Z"/><path d="M1336.5,511.4c16,13.4,22.1,30.1,21.8,50-.5,28-.2,56-.2,83.9c0,3.3,0,6.3,0,10.1-36.4,0-72.6,0-108.8,0-.132886,0,0-4.4,0-6.6-.1-30,0-60-.1-90c0-11.2,2.1-21.7,7.7-31.7c15.7-28.2,55.1-36.9,79.6-15.7m2.7,74.7c-.5-4.6-1.5-8.6-7.5-8.2-4.8.4-6.8,2.5-7.2,8.8-.3,4.7-.1,9.6-.1,14.8c5.2,0,9.4,0,14.9,0c0-4.7,0-9.2-.1-15.4Z"/></svg>
